<svg xmlns="http://www.w3.org/2000/svg" viewBox="0 0 235.78 235.78"><defs><style>.cls-1{fill:#241e3c;}</style></defs><g id="Capa_2" data-name="Capa 2"><g id="Capa_1-2" data-name="Capa 1"><path class="cls-1" d="M117.89,235.78A117.89,117.89,0,1,1,235.78,117.89,118,118,0,0,1,117.89,235.78Zm0-219.28A101.39,101.39,0,1,0,219.27,117.89,101.5,101.5,0,0,0,117.89,16.5Z"/><path class="cls-1" d="M117.89,197.37A28.11,28.11,0,0,1,89.82,169.3V143.56a5,5,0,0,1,9.9,0V169.3a18.17,18.17,0,0,0,36.34,0V140.6a5,5,0,0,1,9.9,0v28.7A28.11,28.11,0,0,1,117.89,197.37Z"/><path class="cls-1" d="M97.18,62.37c0-8.92,8.7-9.76,21-9.76,11.11,0,20.41-.57,20.41,9.53,0,9.62-8.1,21.92-21.61,21.92C105.28,84.06,97.18,72.23,97.18,62.37Z"/><path class="cls-1" d="M85,150.17q-2.08,0-4.23-.18c-18.59-1.52-32.32-12.73-35.82-29.26A6.6,6.6,0,0,1,57.82,118c3.37,15.94,19.2,18.45,24,18.84,11.26.92,22-3.49,24.58-10a79.64,79.64,0,0,0,4.92-25.43,6.6,6.6,0,0,1,13.2,0,92.81,92.81,0,0,1-5.82,30.22C114.28,142.86,100.74,150.17,85,150.17Z"/><path class="cls-1" d="M150.82,150.17c-15.79,0-29.32-7.31-33.72-18.59a92.65,92.65,0,0,1-5.81-30.22,6.6,6.6,0,0,1,13.2,0,80.38,80.38,0,0,0,4.91,25.43c2.55,6.55,13.35,11,24.59,10,4.77-.39,20.59-2.9,24-18.84a6.6,6.6,0,1,1,12.91,2.74c-3.5,16.53-17.22,27.74-35.81,29.26C153.63,150.11,152.22,150.17,150.82,150.17Z"/><path class="cls-1" d="M117.89,180.89a1.65,1.65,0,0,1-1.65-1.65V157a1.65,1.65,0,0,1,3.3,0v22.27A1.65,1.65,0,0,1,117.89,180.89Z"/><circle class="cls-1" cx="98.57" cy="105.88" r="2.23"/><circle class="cls-1" cx="88.11" cy="110.33" r="2.23"/><circle class="cls-1" cx="95.63" cy="114.98" r="2.23"/><circle class="cls-1" cx="135.78" cy="105.88" r="2.23"/><circle class="cls-1" cx="146.24" cy="110.33" r="2.23"/><circle class="cls-1" cx="138.72" cy="114.98" r="2.23"/></g></g></svg>