<svg xmlns="http://www.w3.org/2000/svg" viewBox="0 0 274.33 116.72"><defs><style>.cls-1{fill:#241e3c;}</style></defs><g id="Capa_2" data-name="Capa 2"><g id="Capa_1-2" data-name="Capa 1"><path class="cls-1" d="M215.37,116.72a22.65,22.65,0,0,1-22.63-22.63V73.34a4,4,0,1,1,8,0V94.09a14.65,14.65,0,0,0,29.3,0V71a4,4,0,0,1,8,0V94.09A22.65,22.65,0,0,1,215.37,116.72Z"/><path class="cls-1" d="M61.15,52.12c0-14.57,10-26.85,24.46-26.85,10,0,17.3,6.71,17.3,15.81,0,13-10.59,18.89-23.1,18.89a33.39,33.39,0,0,1-3.53-.23c2,4.67,7.74,8,15.7,8,11.38,0,18.55-6.6,21.85-15.14a1,1,0,0,1,1-.79c1,0,7.62,3.07,7.62,4.32a4.18,4.18,0,0,1-.22,1.14c-3.87,13.08-15.48,21.84-32.43,21.84C73.21,79.08,61.15,68.5,61.15,52.12ZM91.3,41c0-3.19-2.16-5.35-5.8-5.35-6.6,0-11.38,6.83-11.27,13.65v.8a22.73,22.73,0,0,0,3.3.23C84.7,50.3,91.3,47.34,91.3,41Z"/><path class="cls-1" d="M161.73,56a5.53,5.53,0,0,1-.35,1.48c-2.84,9.1-11,21.61-27,21.61-12.4,0-20.82-8.19-20.82-20.48V32.91h-3c-1.71,0-2.5-.57-2.5-2.27V24.26a1.89,1.89,0,0,1,2-2.16h3.42v-13c0-1.93,1-3.07,2.73-3.07H125c1.83,0,2.74,1.14,2.74,3.07v13.2c3.64-.11,8-.23,10.69-.23a1.67,1.67,0,0,1,1.82,1.82v6.94c0,1.6-.68,2-1.93,2-2.62,0-6.83-.11-10.58-.11V52.91c0,8.65,2.27,13.77,9.67,13.77,8.3,0,13.54-8.64,15.59-14.11a1,1,0,0,1,1-.79C155,51.78,161.73,54.73,161.73,56Z"/><path class="cls-1" d="M152.85,58.6V32.91h-3c-1.71,0-2.5-.57-2.5-2.27V24.26a1.89,1.89,0,0,1,2-2.16h3.42v-13c0-1.93,1-3.07,2.73-3.07h8.64c1.83,0,2.74,1.14,2.74,3.07v13.2c3.64-.11,8-.23,10.69-.23a1.67,1.67,0,0,1,1.82,1.82v6.94c0,1.6-.68,2-1.93,2-2.62,0-6.83-.11-10.58-.11V52.91"/><path class="cls-1" d="M198.67,7.87c0-7.19,7-7.87,16.94-7.87,8.95,0,16.45-.45,16.45,7.69,0,7.76-6.53,17.67-17.42,17.67C205.21,25.36,198.67,15.82,198.67,7.87Z"/><path class="cls-1" d="M188.81,78.66c-1.12,0-2.26-.09-3.41-.14-18.74-.82-26.06-10.26-28.88-23.59a5.32,5.32,0,0,1,10.41-2.21c2.72,12.86,15.49,14.88,19.34,15.19,9,.74,17.76-2.81,19.81-8.1a64.67,64.67,0,0,0,4-20.51A5.33,5.33,0,0,1,215.37,34h0a5.32,5.32,0,0,1,5.31,5.32A74.68,74.68,0,0,1,216,63.68C212.46,72.77,201.55,78.66,188.81,78.66Z"/><path class="cls-1" d="M241.92,78.66c-12.73,0-23.64-5.89-27.19-15A75,75,0,0,1,210,39.31a5.33,5.33,0,0,1,10.65,0,65,65,0,0,0,4,20.5c2.06,5.29,10.77,8.84,19.82,8.1,3.85-.31,16.61-2.33,19.33-15.19a5.33,5.33,0,0,1,10.42,2.21c-2.82,13.33-13.89,22.37-28.88,23.59C244.19,78.62,243.05,78.66,241.92,78.66Z"/><path class="cls-1" d="M62.86,49.54q-3,0-6,0H56v-.11C56,37.1,47.9,25.27,34.59,25.27c-11.61,0-16.73,6.48-20.82,13.08l-.46-.11c.23-2.39.8-6.94.8-8.54s-.8-2.95-2.85-2.95H3.07C.57,26.75,0,28,0,30.39v73.27c0,2.5,1,3.41,3,3.41h8.42c1.93,0,2.73-1,2.73-3.07V70.78c0-.12,0-.24,0-.36C15.71,78,24.79,80.5,32.26,79.92c9.06-.69,20.57-9.89,23-22.49,2.54.08,5.08.06,7.63.09a4,4,0,0,0,0-8ZM16,55.62C18.49,45.7,23.6,37.67,31.4,37.67c6.29,0,9.21,5,9.7,11h0c-2.57,0-5.15-.09-7.7.14C27.66,49.3,20.28,51.28,16,55.62ZM30.14,67.15c-7.1,1.42-10.39-7.81-.71-10.07a32.16,32.16,0,0,1,10.83-.46C38.54,62.15,36.16,65.94,30.14,67.15Z"/><path class="cls-1" d="M215.37,103.43A1.32,1.32,0,0,1,214,102.1V84.15a1.33,1.33,0,1,1,2.66,0V102.1A1.33,1.33,0,0,1,215.37,103.43Z"/><circle class="cls-1" cx="199.79" cy="42.96" r="1.79"/><circle class="cls-1" cx="191.36" cy="46.55" r="1.79"/><circle class="cls-1" cx="197.42" cy="50.3" r="1.79"/><circle class="cls-1" cx="229.79" cy="42.96" r="1.79"/><circle class="cls-1" cx="238.23" cy="46.55" r="1.79"/><circle class="cls-1" cx="232.17" cy="50.3" r="1.79"/></g></g></svg>