<svg id="Capa_1" data-name="Capa 1" xmlns="http://www.w3.org/2000/svg" viewBox="0 0 1067.47 1067.47"><defs><style>.cls-1{fill:#feca01;}</style></defs><title>Símbolo petti amarillo</title><g id="Capa_2" data-name="Capa 2"><g id="Capa_1-2" data-name="Capa 1-2"><path class="cls-1" d="M540.06,1074.24c-294.77,0-533.73-239-533.73-533.74S245.29,6.77,540.06,6.77s533.74,239,533.74,533.73C1073.52,835.16,834.72,1074,540.06,1074.24Zm0-992.77c-253.52,0-459,205.47-459.08,459S286.45,999.51,540,999.54,999,794.07,999.05,540.55v0C998.78,287.12,793.45,81.77,540.06,81.47Z" transform="translate(-6.33 -6.77)"/><path class="cls-1" d="M540.06,900.34A127.27,127.27,0,0,1,413,773.26V656.72a22.64,22.64,0,0,1,44.82,0V773.26a82.26,82.26,0,0,0,164.52,0V643.32a22.64,22.64,0,0,1,44.83,0V773.26A127.27,127.27,0,0,1,540.06,900.34Z" transform="translate(-6.33 -6.77)"/><path class="cls-1" d="M446.3,289.14c0-40.38,39.39-44.18,95.07-44.18,50.3,0,92.41-2.59,92.41,43.14,0,43.55-36.67,99.24-97.84,99.24C483,387.34,446.3,333.78,446.3,289.14Z" transform="translate(-6.33 -6.77)"/><path class="cls-1" d="M391.16,686.65q-9.42,0-19.16-.82C287.84,679,225.68,628.2,209.83,553.36A29.88,29.88,0,0,1,268.1,541c15.26,72.17,86.93,83.53,108.66,85.3,51,4.16,99.6-15.8,111.28-45.28a360.65,360.65,0,0,0,22.28-115.13,29.88,29.88,0,0,1,59.76,0,420.11,420.11,0,0,1-26.35,136.82C523.72,653.55,462.42,686.65,391.16,686.65Z" transform="translate(-6.33 -6.77)"/><path class="cls-1" d="M689.15,686.65c-71.49,0-132.74-33.1-152.66-84.17a419.27,419.27,0,0,1-26.31-136.81,29.88,29.88,0,0,1,59.76,0A364.17,364.17,0,0,0,592.17,580.8c11.55,29.65,60.44,49.8,111.33,45.27,21.6-1.76,93.22-13.13,108.66-85.29a29.88,29.88,0,1,1,58.69,11.28l-.24,1.12c-15.85,74.84-78,125.59-162.13,132.47A174.75,174.75,0,0,1,689.15,686.65Z" transform="translate(-6.33 -6.77)"/><path class="cls-1" d="M540.06,825.73a7.47,7.47,0,0,1-7.47-7.47V717.57a7.47,7.47,0,1,1,14.94,0h0V818.4A7.46,7.46,0,0,1,540.06,825.73Z" transform="translate(-6.33 -6.77)"/><circle class="cls-1" cx="446.27" cy="479.36" r="10.1"/><circle class="cls-1" cx="398.91" cy="499.51" r="10.1"/><circle class="cls-1" cx="432.96" cy="520.56" r="10.1"/><circle class="cls-1" cx="614.73" cy="479.36" r="10.1"/><circle class="cls-1" cx="662.09" cy="499.51" r="10.1"/><circle class="cls-1" cx="628.04" cy="520.56" r="10.1"/></g></g></svg>